{
    "asset": {
        "copyright": "(C)2021 chris",
        "generator": "maya2glTF v1.4.0 3d7ba8eaf03e",
        "version": "2.0"
    },
    "scenes": [
        {
            "nodes": [
                0
            ]
        }
    ],
    "scene": 0,
    "nodes": [
        {
            "name": "Box",
            "children": [
                1
            ],
            "translation": [
                0.0,
                2.886137008666992,
                0.0
            ]
        },
        {
            "name": "Box:PIV",
            "mesh": 0,
            "translation": [
                0.0,
                -2.886137008666992,
                0.0
            ]
        }
    ],
    "meshes": [
        {
            "name": "BoxShape",
            "extras": {
                "targetNames": []
            },
            "primitives": [
                {
                    "attributes": {
                        "NORMAL": 1,
                        "POSITION": 2,
                        "TANGENT": 3,
                        "TEXCOORD_0": 4
                    },
                    "indices": 0,
                    "mode": 4,
                    "material": 0
                }
            ]
        }
    ],
    "materials": [
        {
            "name": "GLSLShader4",
            "pbrMetallicRoughness": {
                "baseColorFactor": [
                    1.0,
                    1.0,
                    1.0,
                    1.0
                ],
                "baseColorTexture": {
                    "index": 0
                },
                "metallicFactor": 0.5,
                "roughnessFactor": 0.5,
                "metallicRoughnessTexture": {
                    "index": 1
                }
            },
            "emissiveFactor": [
                0.0,
                0.0,
                0.0
            ],
            "normalTexture": {
                "index": 2
            },
            "occlusionTexture": {
                "index": 1
            }
        }
    ],
    "textures": [
        {
            "sampler": 0,
            "source": 0
        },
        {
            "sampler": 0,
            "source": 1
        },
        {
            "sampler": 0,
            "source": 2
        }
    ],
    "images": [
        {
            "uri": "box_Box_BaseColor.png"
        },
        {
            "uri": "box_Box_OcclusionRoughnessMetallic.png"
        },
        {
            "uri": "box_Box_Normal.png"
        }
    ],
    "samplers": [
        {
            "magFilter": 9729,
            "minFilter": 9987,
            "wrapS": 10497,
            "wrapT": 10497
        }
    ],
    "accessors": [
        {
            "name": "BoxShape#0/indices",
            "bufferView": 0,
            "byteOffset": 0,
            "componentType": 5123,
            "count": 2076,
            "max": [
                1098
            ],
            "min": [
                0
            ],
            "type": "SCALAR"
        },
        {
            "name": "BoxShape#0/vertices/NORMAL",
            "bufferView": 1,
            "byteOffset": 0,
            "componentType": 5126,
            "count": 1099,
            "max": [
                1.0,
                1.0,
                1.0
            ],
            "min": [
                -1.0,
                -1.0,
                -1.0
            ],
            "type": "VEC3"
        },
        {
            "name": "BoxShape#0/vertices/POSITION",
            "bufferView": 1,
            "byteOffset": 13188,
            "componentType": 5126,
            "count": 1099,
            "max": [
                3.876522064208985,
                6.762660980224609,
                3.876522064208985
            ],
            "min": [
                -3.876522064208985,
                -0.990386962890625,
                -3.876522064208985
            ],
            "type": "VEC3"
        },
        {
            "name": "BoxShape#0/vertices/TANGENT",
            "bufferView": 2,
            "byteOffset": 0,
            "componentType": 5126,
            "count": 1099,
            "max": [
                1.0,
                1.0,
                1.0,
                1.0
            ],
            "min": [
                -1.0,
                -1.0,
                -1.0,
                -1.0
            ],
            "type": "VEC4"
        },
        {
            "name": "BoxShape#0/vertices/TEXCOORD_0",
            "bufferView": 3,
            "byteOffset": 0,
            "componentType": 5126,
            "count": 1099,
            "max": [
                0.966504693031311,
                0.9495990872383118
            ],
            "min": [
                0.034808024764060977,
                0.015713930130004884
            ],
            "type": "VEC2"
        }
    ],
    "bufferViews": [
        {
            "name": "WoodenBox/data/indices-2",
            "buffer": 0,
            "byteOffset": 52752,
            "byteLength": 4152,
            "target": 34963
        },
        {
            "name": "WoodenBox/data/vertices-12",
            "buffer": 0,
            "byteOffset": 17584,
            "byteLength": 26376,
            "byteStride": 12,
            "target": 34962
        },
        {
            "name": "WoodenBox/data/vertices-16",
            "buffer": 0,
            "byteOffset": 0,
            "byteLength": 17584,
            "byteStride": 16,
            "target": 34962
        },
        {
            "name": "WoodenBox/data/vertices-8",
            "buffer": 0,
            "byteOffset": 43960,
            "byteLength": 8792,
            "byteStride": 8,
            "target": 34962
        }
    ],
    "buffers": [
        {
            "name": "WoodenBox/data",
            "byteLength": 56904,
            "uri": "WoodenBox0.bin"
        }
    ]
}
